<svg width="47" height="46" viewBox="0 0 47 46" fill="none" xmlns="http://www.w3.org/2000/svg">
<g clip-path="url(#clip0_1333_248)">
<path d="M46.4789 23.0002C46.4789 10.3094 36.191 0.0214844 23.5002 0.0214844C10.8094 0.0214844 0.521484 10.3094 0.521484 23.0002C0.521484 34.4694 8.92443 43.9759 19.9098 45.6998V29.6425H14.0753V23.0002H19.9098V17.9377C19.9098 12.1787 23.3404 8.99755 28.5892 8.99755C31.1025 8.99755 33.7329 9.44635 33.7329 9.44635V15.1013H30.8354C27.9811 15.1013 27.0906 16.8727 27.0906 18.6917V23.0002H33.4636L32.4449 29.6425H27.0906V45.6998C38.076 43.9759 46.4789 34.4694 46.4789 23.0002Z" fill="#1877F2"/>
</g>
<defs>
<clipPath id="clip0_1333_248">
<rect width="45.9574" height="45.9574" fill="white" transform="translate(0.521484 0.0214844)"/>
</clipPath>
</defs>
</svg>
