<svg width="36" height="36" viewBox="0 0 36 36" fill="none" xmlns="http://www.w3.org/2000/svg">
<g clip-path="url(#clip0_1333_253)">
<path d="M17.9995 14.7271V21.698H27.6868C27.2614 23.9398 25.9849 25.838 24.0703 27.1144L29.9121 31.6471C33.3158 28.5054 35.2794 23.8908 35.2794 18.409C35.2794 17.1327 35.1649 15.9053 34.9521 14.7272L17.9995 14.7271Z" fill="#4285F4"/>
<path d="M7.91192 21.4263L6.59438 22.4348L1.93066 26.0675C4.89247 31.942 10.9629 36.0002 17.9992 36.0002C22.8591 36.0002 26.9336 34.3966 29.9119 31.6476L24.0701 27.1148C22.4664 28.1948 20.421 28.8494 17.9992 28.8494C13.3193 28.8494 9.34302 25.6913 7.91928 21.4367L7.91192 21.4263Z" fill="#34A853"/>
<path d="M1.93077 9.93262C0.703563 12.3543 0 15.0871 0 17.9998C0 20.9125 0.703563 23.6452 1.93077 26.0669C1.93077 26.0832 7.91996 21.4197 7.91996 21.4197C7.55996 20.3397 7.34718 19.1943 7.34718 17.9996C7.34718 16.8049 7.55996 15.6595 7.91996 14.5795L1.93077 9.93262Z" fill="#FBBC05"/>
<path d="M17.9996 7.16727C20.6506 7.16727 23.0069 8.08361 24.8887 9.8509L30.0432 4.69642C26.9177 1.78375 22.8597 0 17.9996 0C10.9633 0 4.89247 4.04181 1.93066 9.93274L7.91967 14.58C9.34322 10.3254 13.3196 7.16727 17.9996 7.16727Z" fill="#EA4335"/>
</g>
<defs>
<clipPath id="clip0_1333_253">
<rect width="36" height="36" fill="white"/>
</clipPath>
</defs>
</svg>
