<svg width="48" height="48" viewBox="0 0 48 48" fill="none" xmlns="http://www.w3.org/2000/svg">
<g clip-path="url(#clip0_201_990)">
<path d="M24 48C37.2548 48 48 37.2548 48 24C48 10.7452 37.2548 0 24 0C10.7452 0 0 10.7452 0 24C0 37.2548 10.7452 48 24 48Z" fill="url(#paint0_linear_201_990)"/>
<path fill-rule="evenodd" clip-rule="evenodd" d="M10.8635 23.7459C17.86 20.6977 22.5255 18.6881 24.8598 17.7171C31.5249 14.9449 32.9098 14.4633 33.8125 14.4474C34.011 14.4439 34.4549 14.4931 34.7425 14.7265C34.9853 14.9235 35.0521 15.1896 35.0841 15.3764C35.116 15.5632 35.1558 15.9887 35.1242 16.3212C34.763 20.1162 33.2002 29.3256 32.4051 33.576C32.0687 35.3745 31.4062 35.9775 30.7649 36.0365C29.3712 36.1648 28.3129 35.1155 26.963 34.2306C24.8507 32.846 23.6573 31.984 21.607 30.6328C19.2374 29.0713 20.7735 28.2131 22.1239 26.8105C22.4773 26.4435 28.6181 20.858 28.737 20.3513C28.7518 20.2879 28.7656 20.0517 28.6253 19.927C28.485 19.8022 28.2778 19.8449 28.1284 19.8788C27.9165 19.9269 24.5421 22.1573 18.005 26.5699C17.0472 27.2277 16.1796 27.5481 15.4023 27.5313C14.5454 27.5128 12.897 27.0468 11.6716 26.6485C10.1686 26.1599 8.97407 25.9016 9.07809 25.0719C9.13227 24.6397 9.72742 24.1977 10.8635 23.7459Z" fill="white"/>
<path fill-rule="evenodd" clip-rule="evenodd" d="M10.8635 23.7459C17.86 20.6977 22.5255 18.6881 24.8598 17.7171C31.5249 14.9449 32.9098 14.4633 33.8125 14.4474C34.011 14.4439 34.4549 14.4931 34.7425 14.7265C34.9853 14.9235 35.0521 15.1896 35.0841 15.3764C35.116 15.5632 35.1558 15.9887 35.1242 16.3212C34.763 20.1162 33.2002 29.3256 32.4051 33.576C32.0687 35.3745 31.4062 35.9775 30.7649 36.0365C29.3712 36.1648 28.3129 35.1155 26.963 34.2306C24.8507 32.846 23.6573 31.984 21.607 30.6328C19.2374 29.0713 20.7735 28.2131 22.1239 26.8105C22.4773 26.4435 28.6181 20.858 28.737 20.3513C28.7518 20.2879 28.7656 20.0517 28.6253 19.927C28.485 19.8022 28.2778 19.8449 28.1284 19.8788C27.9165 19.9269 24.5421 22.1573 18.005 26.5699C17.0472 27.2277 16.1796 27.5481 15.4023 27.5313C14.5454 27.5128 12.897 27.0468 11.6716 26.6485C10.1686 26.1599 8.97407 25.9016 9.07809 25.0719C9.13227 24.6397 9.72742 24.1977 10.8635 23.7459Z" fill="white"/>
</g>
<defs>
<linearGradient id="paint0_linear_201_990" x1="24" y1="0" x2="24" y2="47.644" gradientUnits="userSpaceOnUse">
<stop stop-color="#2AABEE"/>
<stop offset="1" stop-color="#229ED9"/>
</linearGradient>
<clipPath id="clip0_201_990">
<rect width="48" height="48" fill="white"/>
</clipPath>
</defs>
</svg>
